{
  "accessors": [
    {
      "bufferView": 2,
      "componentType": 5126,
      "count": 65532,
      "max": [
        1.1449624300003052,
        4.514551162719727,
        0.8332202434539795
      ],
      "min": [
        -1.6961033344268799,
        1.8556008338928223,
        -1.5147541761398315
      ],
      "type": "VEC3"
    },
    {
      "bufferView": 2,
      "byteOffset": 786384,
      "componentType": 5126,
      "count": 65532,
      "max": [
        0.9999922513961792,
        0.9999460577964783,
        0.9999798536300659
      ],
      "min": [
        -0.9999567270278931,
        -0.9998778104782104,
        -0.9999971389770508
      ],
      "type": "VEC3"
    },
    {
      "bufferView": 1,
      "componentType": 5126,
      "count": 65532,
      "max": [
        0.9918670058250427,
        0.9083160161972046
      ],
      "min": [
        0.007960000075399876,
        0.11637997627258301
      ],
      "type": "VEC2"
    },
    {
      "bufferView": 0,
      "componentType": 5125,
      "count": 336672,
      "type": "SCALAR"
    },
    {
      "bufferView": 2,
      "byteOffset": 1572768,
      "componentType": 5126,
      "count": 65532,
      "max": [
        1.1417808532714844,
        4.517464637756348,
        0.8207910656929016
      ],
      "min": [
        -1.6560829877853394,
        1.9007760286331177,
        -1.511501431465149
      ],
      "type": "VEC3"
    },
    {
      "bufferView": 2,
      "byteOffset": 2359152,
      "componentType": 5126,
      "count": 65532,
      "max": [
        0.9995905756950378,
        0.9999839663505554,
        0.9999995231628418
      ],
      "min": [
        -0.9990159869194031,
        -0.9998778104782104,
        -0.9999290704727173
      ],
      "type": "VEC3"
    },
    {
      "bufferView": 1,
      "byteOffset": 524256,
      "componentType": 5126,
      "count": 65532,
      "max": [
        0.9901589751243591,
        0.9919999837875366
      ],
      "min": [
        0.09679599851369858,
        0.4620879888534546
      ],
      "type": "VEC2"
    },
    {
      "bufferView": 0,
      "byteOffset": 1346688,
      "componentType": 5125,
      "count": 368835,
      "type": "SCALAR"
    },
    {
      "bufferView": 2,
      "byteOffset": 3145536,
      "componentType": 5126,
      "count": 65532,
      "max": [
        0.020527319982647896,
        4.507846832275391,
        0.5688442587852478
      ],
      "min": [
        -1.3729524612426758,
        3.1211626529693604,
        -0.9829608798027039
      ],
      "type": "VEC3"
    },
    {
      "bufferView": 2,
      "byteOffset": 3931920,
      "componentType": 5126,
      "count": 65532,
      "max": [
        0.9894590973854065,
        0.9999560713768005,
        0.9999973773956299
      ],
      "min": [
        -0.9998398423194885,
        -0.9977684020996094,
        -0.9999890923500061
      ],
      "type": "VEC3"
    },
    {
      "bufferView": 1,
      "byteOffset": 1048512,
      "componentType": 5126,
      "count": 65532,
      "max": [
        0.5939279794692993,
        0.9920049905776978
      ],
      "min": [
        0.008019999600946903,
        0.7770419716835022
      ],
      "type": "VEC2"
    },
    {
      "bufferView": 0,
      "byteOffset": 2822028,
      "componentType": 5125,
      "count": 375312,
      "type": "SCALAR"
    },
    {
      "bufferView": 2,
      "byteOffset": 4718304,
      "componentType": 5126,
      "count": 57672,
      "max": [
        0.39205121994018555,
        4.488435745239258,
        0.7198196649551392
      ],
      "min": [
        -1.6697450876235962,
        2.1050515174865723,
        -1.0134350061416626
      ],
      "type": "VEC3"
    },
    {
      "bufferView": 2,
      "byteOffset": 5410368,
      "componentType": 5126,
      "count": 57672,
      "max": [
        0.9999357461929321,
        0.999987006187439,
        0.9998430609703064
      ],
      "min": [
        -0.9999327063560486,
        -0.9968852996826172,
        -0.999979555606842
      ],
      "type": "VEC3"
    },
    {
      "bufferView": 1,
      "byteOffset": 1572768,
      "componentType": 5126,
      "count": 57672,
      "max": [
        0.9608849883079529,
        0.9920539855957031
      ],
      "min": [
        0.007977000437676907,
        0.45866096019744873
      ],
      "type": "VEC2"
    },
    {
      "bufferView": 0,
      "byteOffset": 4323276,
      "componentType": 5125,
      "count": 319392,
      "type": "SCALAR"
    }
  ],
  "asset": {
    "extras": {
      "author": "Nate Loper   🗺️ ⛏🏺  #ArizonaGuide (https://sketchfab.com/arizonaguide)",
      "license": "CC-BY-4.0 (http://creativecommons.org/licenses/by/4.0/)",
      "source": "https://sketchfab.com/3d-models/saber-toothed-tiger-cat-ice-age-smilodon-5737f1c39e184a2da1c581b9fab7ec46",
      "title": "Saber-Toothed Tiger Cat - Ice Age Smilodon"
    },
    "generator": "Sketchfab-14.77.0",
    "version": "2.0"
  },
  "bufferViews": [
    {
      "buffer": 0,
      "byteLength": 5600844,
      "name": "floatBufferViews",
      "target": 34963
    },
    {
      "buffer": 0,
      "byteLength": 2034144,
      "byteOffset": 5600844,
      "byteStride": 8,
      "name": "floatBufferViews",
      "target": 34962
    },
    {
      "buffer": 0,
      "byteLength": 6102432,
      "byteOffset": 7634988,
      "byteStride": 12,
      "name": "floatBufferViews",
      "target": 34962
    }
  ],
  "buffers": [
    {
      "byteLength": 13737420,
      "uri": "scene.bin"
    }
  ],
  "extensionsUsed": [
    "KHR_materials_unlit"
  ],
  "images": [
    {
      "uri": "textures/material0000_baseColor.jpeg"
    }
  ],
  "materials": [
    {
      "extensions": {
        "KHR_materials_unlit": {}
      },
      "name": "material0000",
      "pbrMetallicRoughness": {
        "baseColorTexture": {
          "index": 0
        },
        "metallicFactor": 0.0
      }
    }
  ],
  "meshes": [
    {
      "name": "scan",
      "primitives": [
        {
          "attributes": {
            "NORMAL": 1,
            "POSITION": 0,
            "TEXCOORD_0": 2
          },
          "indices": 3,
          "material": 0,
          "mode": 4
        }
      ]
    },
    {
      "name": "scan",
      "primitives": [
        {
          "attributes": {
            "NORMAL": 5,
            "POSITION": 4,
            "TEXCOORD_0": 6
          },
          "indices": 7,
          "material": 0,
          "mode": 4
        }
      ]
    },
    {
      "name": "scan",
      "primitives": [
        {
          "attributes": {
            "NORMAL": 9,
            "POSITION": 8,
            "TEXCOORD_0": 10
          },
          "indices": 11,
          "material": 0,
          "mode": 4
        }
      ]
    },
    {
      "name": "scan",
      "primitives": [
        {
          "attributes": {
            "NORMAL": 13,
            "POSITION": 12,
            "TEXCOORD_0": 14
          },
          "indices": 15,
          "material": 0,
          "mode": 4
        }
      ]
    }
  ],
  "nodes": [
    {
      "children": [
        1
      ],
      "matrix": [
        1.0,
        0.0,
        0.0,
        0.0,
        0.0,
        2.220446049250313e-16,
        -1.0,
        0.0,
        0.0,
        1.0,
        2.220446049250313e-16,
        0.0,
        0.0,
        0.0,
        0.0,
        1.0
      ],
      "name": "Sketchfab_model"
    },
    {
      "children": [
        2
      ],
      "matrix": [
        1.0,
        0.0,
        0.0,
        0.0,
        0.0,
        2.220446049250313e-16,
        1.0,
        0.0,
        0.0,
        -1.0,
        2.220446049250313e-16,
        0.0,
        0.0,
        0.0,
        0.0,
        1.0
      ],
      "name": "USDRoot"
    },
    {
      "children": [
        3
      ],
      "name": "MiRlqFfQLz7uoEyJRchq"
    },
    {
      "children": [
        4,
        5,
        6,
        7
      ],
      "name": "Geom"
    },
    {
      "mesh": 0,
      "name": "scan"
    },
    {
      "mesh": 1,
      "name": "scan"
    },
    {
      "mesh": 2,
      "name": "scan"
    },
    {
      "mesh": 3,
      "name": "scan"
    }
  ],
  "samplers": [
    {
      "magFilter": 9729,
      "minFilter": 9987,
      "wrapS": 10497,
      "wrapT": 10497
    }
  ],
  "scene": 0,
  "scenes": [
    {
      "name": "Sketchfab_Scene",
      "nodes": [
        0
      ]
    }
  ],
  "textures": [
    {
      "sampler": 0,
      "source": 0
    }
  ]
}
